<svg viewBox="-132 -132 264 264" xmlns="http://www.w3.org/2000/svg">
  <defs>
    <clipPath id="logo-circle">
      <circle cx="0" cy="0" r="126"/>
    </clipPath>
  </defs>
  <g clip-path="url(#logo-circle)">
    <!-- Stems (thin vertical lines) -->
    <line x1="-112.9" y1="-126" x2="-112.9" y2="126" stroke="black" stroke-width="1.8" opacity="0.55"/>
    <line x1="-85.1" y1="-126" x2="-85.1" y2="126" stroke="black" stroke-width="1.8" opacity="0.55"/>
    <line x1="-58.1" y1="-126" x2="-58.1" y2="126" stroke="black" stroke-width="1.8" opacity="0.55"/>
    <line x1="-31" y1="-126" x2="-31" y2="126" stroke="black" stroke-width="1.8" opacity="0.55"/>
    <line x1="0" y1="-126" x2="0" y2="126" stroke="black" stroke-width="1.8" opacity="0.55"/>
    <line x1="31" y1="-126" x2="31" y2="126" stroke="black" stroke-width="1.8" opacity="0.55"/>
    <line x1="58.1" y1="-126" x2="58.1" y2="126" stroke="black" stroke-width="1.8" opacity="0.55"/>
    <line x1="85.1" y1="-126" x2="85.1" y2="126" stroke="black" stroke-width="1.8" opacity="0.55"/>
    <line x1="112.9" y1="-126" x2="112.9" y2="126" stroke="black" stroke-width="1.8" opacity="0.55"/>
    <!-- Capsules (thick rounded fader handles) -->
    <line x1="-112.9" y1="-80" x2="-112.9" y2="20" stroke="black" stroke-width="15.5" stroke-linecap="round"/>
    <line x1="-85.1" y1="-28" x2="-85.1" y2="5" stroke="black" stroke-width="15.5" stroke-linecap="round"/>
    <line x1="-58.1" y1="-62.9" x2="-58.1" y2="30" stroke="black" stroke-width="15.5" stroke-linecap="round"/>
    <line x1="-31" y1="-66.8" x2="-31" y2="60.8" stroke="black" stroke-width="15.5" stroke-linecap="round"/>
    <line x1="0" y1="-47" x2="0" y2="90" stroke="black" stroke-width="15.5" stroke-linecap="round"/>
    <line x1="31" y1="-69.3" x2="31" y2="51.5" stroke="black" stroke-width="15.5" stroke-linecap="round"/>
    <line x1="58.1" y1="-66.3" x2="58.1" y2="30" stroke="black" stroke-width="15.5" stroke-linecap="round"/>
    <line x1="85.1" y1="-28" x2="85.1" y2="5" stroke="black" stroke-width="15.5" stroke-linecap="round"/>
    <line x1="112.9" y1="-80" x2="112.9" y2="20" stroke="black" stroke-width="15.5" stroke-linecap="round"/>
  </g>
</svg>
