<svg viewBox="-132 -132 264 264" xmlns="http://www.w3.org/2000/svg">
  <defs>
    <clipPath id="logo-circle">
      <circle cx="0" cy="0" r="126"/>
    </clipPath>
  </defs>
  <g clip-path="url(#logo-circle)">
    <!-- Stems (thin vertical lines) -->
    <line x1="-112.9" y1="-126" x2="-112.9" y2="126" stroke="#F5F0E8" stroke-width="3.5" opacity="1"/>
    <line x1="-85.1" y1="-126" x2="-85.1" y2="126" stroke="#F5F0E8" stroke-width="3.5" opacity="1"/>
    <line x1="-58.1" y1="-126" x2="-58.1" y2="126" stroke="#F5F0E8" stroke-width="3.5" opacity="1"/>
    <line x1="-31" y1="-126" x2="-31" y2="126" stroke="#F5F0E8" stroke-width="3.5" opacity="1"/>
    <line x1="0" y1="-126" x2="0" y2="126" stroke="#F5F0E8" stroke-width="3.5" opacity="1"/>
    <line x1="31" y1="-126" x2="31" y2="126" stroke="#F5F0E8" stroke-width="3.5" opacity="1"/>
    <line x1="58.1" y1="-126" x2="58.1" y2="126" stroke="#F5F0E8" stroke-width="3.5" opacity="1"/>
    <line x1="85.1" y1="-126" x2="85.1" y2="126" stroke="#F5F0E8" stroke-width="3.5" opacity="1"/>
    <line x1="112.9" y1="-126" x2="112.9" y2="126" stroke="#F5F0E8" stroke-width="3.5" opacity="1"/>
    <!-- Capsules (thick rounded fader handles) -->
    <line x1="-112.9" y1="-78.5" x2="-112.9" y2="18.5" stroke="#F5F0E8" stroke-width="15.5" stroke-linecap="round"/>
    <line x1="-85.1" y1="-26.5" x2="-85.1" y2="3.5" stroke="#F5F0E8" stroke-width="15.5" stroke-linecap="round"/>
    <line x1="-58.1" y1="-61.4" x2="-58.1" y2="28.5" stroke="#F5F0E8" stroke-width="15.5" stroke-linecap="round"/>
    <line x1="-31" y1="-65.3" x2="-31" y2="59.3" stroke="#F5F0E8" stroke-width="15.5" stroke-linecap="round"/>
    <line x1="0" y1="-45.5" x2="0" y2="88.5" stroke="#F5F0E8" stroke-width="15.5" stroke-linecap="round"/>
    <line x1="31" y1="-67.8" x2="31" y2="50" stroke="#F5F0E8" stroke-width="15.5" stroke-linecap="round"/>
    <line x1="58.1" y1="-64.8" x2="58.1" y2="28.5" stroke="#F5F0E8" stroke-width="15.5" stroke-linecap="round"/>
    <line x1="85.1" y1="-26.5" x2="85.1" y2="3.5" stroke="#F5F0E8" stroke-width="15.5" stroke-linecap="round"/>
    <line x1="112.9" y1="-78.5" x2="112.9" y2="18.5" stroke="#F5F0E8" stroke-width="15.5" stroke-linecap="round"/>
  </g>
</svg>
